<svg xmlns="http://www.w3.org/2000/svg" xml:space="preserve" width="140mm" height="144.31" style="shape-rendering:geometricPrecision;text-rendering:geometricPrecision;image-rendering:optimizeQuality;fill-rule:evenodd;clip-rule:evenodd" viewBox="0 0 14000 3818.2">
    <path style="fill:none" d="M-.01.01h14000.02v3818.18H-.01z"/>
    <path d="m729.9 1897.04 1885.42 1504.43v-638.62L730 1264.34l-.1 632.7zm373.17-476.38L2391.89 2450.9l.07-490.44L1103.22 936.13l-.15 484.53zm252.48-416.06 857.34 687.28.03-364.19-857.24-681.36-.13 358.27zm297.68-241.59 363.46 294.74V814.31l-363.36-288.83-.1 237.53z" style="fill:#176b3e"/>
    <path d="M4363.13 2618.84v-1347h-185.88l-29.66 277.48c-107.73-199.34-299.03-317.89-527.99-317.89-369.09 0-649.25 304.43-649.25 716.61 0 406.79 280.16 711.2 649.25 711.2 228.96 0 422.93-118.52 530.7-317.9l26.95 277.49h185.88v.01zm-1177.27-673.5c0-304.4 202.05-519.91 490.32-519.91 277.46 0 471.42 215.51 471.42 519.91 0 307.11-193.96 517.24-471.42 517.24-282.86 0-490.32-218.21-490.32-517.24zm1713.38 0c0-296.32 207.42-519.91 490.29-519.91 220.91 0 396.01 129.31 468.74 317.87l223.62-.01c-88.91-309.79-350.23-511.86-692.37-511.86-406.76 0-705.79 304.43-705.79 716.61 0 406.79 301.7 711.2 705.79 711.2 344.85 0 606.17-204.75 695.07-514.53h-223.61c-70.03 191.26-247.83 317.86-471.45 317.86-282.87 0-490.29-218.21-490.29-517.24v.01zm1716.05 102.38h245.13l487.62 571.11 253.24.01-584.6-673.5 519.94-673.5h-242.45l-439.13 576.52H6615.3V733.07h-215.53v1885.77h215.53v-571.11l-.01-.01zm1196.11-775.88v1885.77h215.5v-805.48c110.47 193.96 304.44 307.11 528.02 307.11 369.06 0 641.17-304.41 641.17-716.58 0-406.8-274.78-711.23-641.17-711.23-226.29 0-417.55 115.85-530.69 307.14l-26.95-266.73-185.89-.01.01.01zm1169.2 673.49c0 301.74-204.75 517.24-482.24 517.24s-471.45-212.8-471.45-517.24c0-307.11 188.59-519.91 471.45-519.91 277.49 0 482.24 218.21 482.24 519.91zM9532.87 808.5c0 67.33 45.78 113.14 113.14 113.14 70.03 0 115.82-45.81 115.82-113.14 0-70.06-45.79-115.85-115.82-115.85-67.36 0-113.14 45.79-113.14 115.85zm220.88 1810.34v-1347h-215.51v1346.99l215.51.01zm649.25-665.42c0-309.78 177.8-519.91 436.42-519.91 263.99 0 436.42 207.43 436.42 519.91v665.42h215.49v-665.42c0-422.93-239.75-721.99-587.27-721.99-220.91 0-398.71 115.86-503.77 307.15l-26.95-266.74h-185.89v1347l215.54.01v-665.42l.01-.01zm2799.02 53.9c0-21.57 2.67-40.41 2.67-59.27 0-425.64-288.24-716.62-697.74-716.62-401.39 0-689.63 304.44-689.63 716.62 0 406.79 293.62 711.2 689.63 711.2 301.73 0 541.51-161.64 651.95-422.96h-220.91c-88.9 153.55-242.46 250.53-431.04 250.53-255.92 0-447.18-202.04-471.42-479.5h1166.49zm-1166.49-123.93c24.24-277.49 215.5-474.12 471.42-474.12 266.7 0 455.28 191.26 479.53 474.12h-950.95z" style="fill:#000;fill-rule:nonzero"/>
</svg>
